# xmcd CD database file
#
# Track frame offsets:
#	225
#	17342
#	38142
#	59995
#	78183
#	98395
#	119086
#	141832
#	159717
#	188157
#
# Disc length: 2764 seconds
#
# Revision: 1
# Processed by: cddbd v1.4PL0 Copyright (c) Steve Scherf et al.
# Submitted via: CDex 1.40Release
#
DISCID=810ac90a
DTITLE=Jay Douglas - You Are My Lady
DYEAR=1997
DGENRE=Blues
TTITLE0=Are You Lonely For Me Baby
TTITLE1=Lets's Stay Together
TTITLE2=You Are My Lady
TTITLE3=Please Stay
TTITLE4=Consider Me
TTITLE5=Soul Trek
TTITLE6=I Wanna Take You Home
TTITLE7=Please Stay (2)
TTITLE8=Every Time You Go Away
TTITLE9=Soul Treck (2)
EXTD=YEAR: 1997 ID3G: 0
EXTT0=
EXTT1=
EXTT2=
EXTT3=
EXTT4=
EXTT5=
EXTT6=
EXTT7=
EXTT8=
EXTT9=
PLAYORDER=
